HIERARCHY
ROOT Hips
{
	OFFSET 0.000000 97.167313 0.000000
	CHANNELS 6 Xposition Yposition Zposition Xrotation Yrotation Zrotation
	JOINT Spine
	{
		OFFSET 0.000000 13.784798 0.064400
		CHANNELS 3 Xrotation Yrotation Zrotation
		JOINT Spine1
		{
			OFFSET 0.000000 12.037903 0.404700
			CHANNELS 3 Xrotation Yrotation Zrotation
			JOINT Spine2
			{
				OFFSET 0.000000 17.795601 0.420200
				CHANNELS 3 Xrotation Yrotation Zrotation
				JOINT Neck
				{
					OFFSET 0.000000 39.131302 11.954600
					CHANNELS 3 Xrotation Yrotation Zrotation
					JOINT Head
					{
						OFFSET 0.000000 14.456192 15.627699
						CHANNELS 3 Xrotation Yrotation Zrotation
						JOINT HeadTop_End
						{
							OFFSET 0.000000 15.703506 7.603401
							CHANNELS 3 Xrotation Yrotation Zrotation
							End Site
							{
								OFFSET 0.000000 17.447403 0.000000
							}
						}
					}
				}
				JOINT LeftShoulder
				{
					OFFSET 17.399500 24.608795 1.168800
					CHANNELS 3 Xrotation Yrotation Zrotation
					JOINT LeftArm
					{
						OFFSET 18.980635 5.765305 1.818600
						CHANNELS 3 Xrotation Yrotation Zrotation
						JOINT LeftForeArm
						{
							OFFSET 49.290169 0.000000 0.000000
							CHANNELS 3 Xrotation Yrotation Zrotation
							JOINT LeftHand
							{
								OFFSET 31.562012 0.000000 0.000000
								CHANNELS 3 Xrotation Yrotation Zrotation
								JOINT LeftHandThumb1
								{
									OFFSET 6.133995 -4.388519 7.076070
									CHANNELS 3 Xrotation Yrotation Zrotation
									JOINT LeftHandThumb2
									{
										OFFSET 6.037666 -3.485840 3.485847
										CHANNELS 3 Xrotation Yrotation Zrotation
										JOINT LeftHandThumb3
										{
											OFFSET 6.496506 -3.750763 3.750761
											CHANNELS 3 Xrotation Yrotation Zrotation
											JOINT LeftHandThumb4
											{
												OFFSET 5.616882 -3.242905 3.242910
												CHANNELS 3 Xrotation Yrotation Zrotation
												End Site
												{
													OFFSET -1.254608 7.132141 0.375429
												}
											}
										}
									}
								}
								JOINT LeftHandPinky1
								{
									OFFSET 18.920792 -0.453171 -11.426712
									CHANNELS 3 Xrotation Yrotation Zrotation
									JOINT LeftHandPinky2
									{
										OFFSET 4.919586 0.000000 0.000000
										CHANNELS 3 Xrotation Yrotation Zrotation
										JOINT LeftHandPinky3
										{
											OFFSET 5.233047 0.000000 0.000000
											CHANNELS 3 Xrotation Yrotation Zrotation
											JOINT LeftHandPinky4
											{
												OFFSET 5.571716 0.000000 0.000000
												CHANNELS 3 Xrotation Yrotation Zrotation
												End Site
												{
													OFFSET -3.459808 4.342407 -0.466164
												}
											}
										}
									}
								}
								JOINT LeftHandRing1
								{
									OFFSET 22.726120 -0.094986 -6.500475
									CHANNELS 3 Xrotation Yrotation Zrotation
									JOINT LeftHandRing2
									{
										OFFSET 6.408615 0.000000 0.000000
										CHANNELS 3 Xrotation Yrotation Zrotation
										JOINT LeftHandRing3
										{
											OFFSET 6.150223 0.000000 0.000000
											CHANNELS 3 Xrotation Yrotation Zrotation
											JOINT LeftHandRing4
											{
												OFFSET 6.145386 0.000000 0.000000
												CHANNELS 3 Xrotation Yrotation Zrotation
												End Site
												{
													OFFSET -3.671402 4.923981 -0.202372
												}
											}
										}
									}
								}
								JOINT LeftHandMiddle1
								{
									OFFSET 23.373947 0.000000 0.000001
									CHANNELS 3 Xrotation Yrotation Zrotation
									JOINT LeftHandMiddle2
									{
										OFFSET 6.996567 0.000000 0.000000
										CHANNELS 3 Xrotation Yrotation Zrotation
										JOINT LeftHandMiddle3
										{
											OFFSET 7.015945 0.000000 0.000000
											CHANNELS 3 Xrotation Yrotation Zrotation
											JOINT LeftHandMiddle4
											{
												OFFSET 7.721573 0.000000 0.000000
												CHANNELS 3 Xrotation Yrotation Zrotation
												End Site
												{
													OFFSET -4.651108 6.158463 0.251582
												}
											}
										}
									}
								}
								JOINT LeftHandIndex1
								{
									OFFSET 21.310577 -0.490082 6.209344
									CHANNELS 3 Xrotation Yrotation Zrotation
									JOINT LeftHandIndex2
									{
										OFFSET 7.536453 0.000000 0.000000
										CHANNELS 3 Xrotation Yrotation Zrotation
										JOINT LeftHandIndex3
										{
											OFFSET 7.512344 0.000000 0.000000
											CHANNELS 3 Xrotation Yrotation Zrotation
											JOINT LeftHandIndex4
											{
												OFFSET 10.212402 0.000000 0.000001
												CHANNELS 3 Xrotation Yrotation Zrotation
												End Site
												{
													OFFSET -5.180801 8.690506 1.388433
												}
											}
										}
									}
								}
							}
						}
					}
				}
				JOINT RightShoulder
				{
					OFFSET -17.399500 24.608795 1.168800
					CHANNELS 3 Xrotation Yrotation Zrotation
					JOINT RightArm
					{
						OFFSET -18.980635 5.765305 1.818600
						CHANNELS 3 Xrotation Yrotation Zrotation
						JOINT RightForeArm
						{
							OFFSET -49.290169 0.000000 0.000000
							CHANNELS 3 Xrotation Yrotation Zrotation
							JOINT RightHand
							{
								OFFSET -31.562012 0.000000 0.000000
								CHANNELS 3 Xrotation Yrotation Zrotation
								JOINT RightHandThumb1
								{
									OFFSET -6.133995 -4.388519 7.076070
									CHANNELS 3 Xrotation Yrotation Zrotation
									JOINT RightHandThumb2
									{
										OFFSET -6.037666 -3.485840 3.485847
										CHANNELS 3 Xrotation Yrotation Zrotation
										JOINT RightHandThumb3
										{
											OFFSET -6.496506 -3.750763 3.750761
											CHANNELS 3 Xrotation Yrotation Zrotation
											JOINT RightHandThumb4
											{
												OFFSET -5.616882 -3.242905 3.242910
												CHANNELS 3 Xrotation Yrotation Zrotation
												End Site
												{
													OFFSET 1.254608 7.132141 0.375429
												}
											}
										}
									}
								}
								JOINT RightHandIndex1
								{
									OFFSET -21.310577 -0.490082 6.209344
									CHANNELS 3 Xrotation Yrotation Zrotation
									JOINT RightHandIndex2
									{
										OFFSET -7.536453 0.000000 0.000000
										CHANNELS 3 Xrotation Yrotation Zrotation
										JOINT RightHandIndex3
										{
											OFFSET -7.512344 0.000000 0.000000
											CHANNELS 3 Xrotation Yrotation Zrotation
											JOINT RightHandIndex4
											{
												OFFSET -10.212402 0.000000 0.000001
												CHANNELS 3 Xrotation Yrotation Zrotation
												End Site
												{
													OFFSET 5.180801 8.690506 1.388433
												}
											}
										}
									}
								}
								JOINT RightHandMiddle1
								{
									OFFSET -23.373947 0.000000 0.000001
									CHANNELS 3 Xrotation Yrotation Zrotation
									JOINT RightHandMiddle2
									{
										OFFSET -6.996567 0.000000 0.000000
										CHANNELS 3 Xrotation Yrotation Zrotation
										JOINT RightHandMiddle3
										{
											OFFSET -7.015945 0.000000 0.000000
											CHANNELS 3 Xrotation Yrotation Zrotation
											JOINT RightHandMiddle4
											{
												OFFSET -7.721573 0.000000 0.000000
												CHANNELS 3 Xrotation Yrotation Zrotation
												End Site
												{
													OFFSET 4.651108 6.158463 0.251582
												}
											}
										}
									}
								}
								JOINT RightHandRing1
								{
									OFFSET -22.726120 -0.094986 -6.500475
									CHANNELS 3 Xrotation Yrotation Zrotation
									JOINT RightHandRing2
									{
										OFFSET -6.408615 0.000000 0.000000
										CHANNELS 3 Xrotation Yrotation Zrotation
										JOINT RightHandRing3
										{
											OFFSET -6.150223 0.000000 0.000000
											CHANNELS 3 Xrotation Yrotation Zrotation
											JOINT RightHandRing4
											{
												OFFSET -6.145386 0.000000 0.000000
												CHANNELS 3 Xrotation Yrotation Zrotation
												End Site
												{
													OFFSET 3.671402 4.923981 -0.202372
												}
											}
										}
									}
								}
								JOINT RightHandPinky1
								{
									OFFSET -18.920792 -0.453171 -11.426712
									CHANNELS 3 Xrotation Yrotation Zrotation
									JOINT RightHandPinky2
									{
										OFFSET -4.919586 0.000000 0.000000
										CHANNELS 3 Xrotation Yrotation Zrotation
										JOINT RightHandPinky3
										{
											OFFSET -5.233047 0.000000 0.000000
											CHANNELS 3 Xrotation Yrotation Zrotation
											JOINT RightHandPinky4
											{
												OFFSET -5.571716 0.000000 0.000000
												CHANNELS 3 Xrotation Yrotation Zrotation
												End Site
												{
													OFFSET 3.459808 4.342407 -0.466164
												}
											}
										}
									}
								}
							}
						}
					}
				}
			}
		}
	}
	JOINT LeftUpLeg
	{
		OFFSET 19.899099 -7.885101 -3.429500
		CHANNELS 3 Xrotation Yrotation Zrotation
		JOINT LeftLeg
		{
			OFFSET 1.745560 -36.997807 10.304700
			CHANNELS 3 Xrotation Yrotation Zrotation
			JOINT LeftFoot
			{
				OFFSET -1.745558 -29.803308 -13.615400
				CHANNELS 3 Xrotation Yrotation Zrotation
				JOINT LeftToeBase
				{
					OFFSET 1.181900 -18.539904 15.226099
					CHANNELS 3 Xrotation Yrotation Zrotation
					JOINT LeftToe_End
					{
						OFFSET -0.863701 1.402801 16.534700
						CHANNELS 3 Xrotation Yrotation Zrotation
						End Site
						{
							OFFSET 0.000000 16.616566 0.000000
						}
					}
				}
			}
		}
	}
	JOINT RightUpLeg
	{
		OFFSET -19.899099 -7.885101 -3.429500
		CHANNELS 3 Xrotation Yrotation Zrotation
		JOINT RightLeg
		{
			OFFSET -1.745560 -36.997807 10.304700
			CHANNELS 3 Xrotation Yrotation Zrotation
			JOINT RightFoot
			{
				OFFSET 1.745558 -29.803308 -13.615400
				CHANNELS 3 Xrotation Yrotation Zrotation
				JOINT RightToeBase
				{
					OFFSET -1.181900 -18.539904 15.226099
					CHANNELS 3 Xrotation Yrotation Zrotation
					JOINT RightToe_End
					{
						OFFSET 0.863701 1.402801 16.534700
						CHANNELS 3 Xrotation Yrotation Zrotation
						End Site
						{
							OFFSET 0.000000 16.616566 0.000000
						}
					}
				}
			}
		}
	}
}
MOTION
Frames: 5
Frame Time: 0.033333
-21.085529 96.917068 1.684330 -0.297795 18.478602 -2.787398 5.370233 0.259424 -4.071356 -3.561571 1.454159 1.878426 -3.480989 1.343933 1.780546 7.109347 -4.304567 3.823943 1.033162 -9.725223 -1.114883 -0.000000 0.000001 -0.000000 3.930311 -6.983380 1.654112 9.750693 9.957518 -75.822312 -2.753325 -16.771504 1.369121 -3.257354 0.972977 6.847502 9.813817 -4.615713 15.437981 -3.249930 22.572095 -5.987907 -6.673155 0.355664 -2.615504 0.000003 0.000001 0.000000 -2.696034 18.618266 -13.011455 8.427724 2.577736 -26.519386 5.089066 2.536330 -9.755116 -0.000001 -0.000003 0.000001 -3.418903 16.498068 -2.384753 2.995910 3.445285 -24.709750 1.672014 2.519473 -10.839987 0.000001 0.000004 0.000002 -1.918896 4.424486 -4.838510 -0.024051 4.061152 -19.192149 -0.526984 0.882884 -6.986368 -0.000002 -0.000000 0.000001 1.116368 -7.397233 -0.519332 -1.778649 1.895344 -12.211351 -1.612512 3.831270 -8.480499 0.000000 0.000001 0.000003 1.665704 6.090238 3.435761 -1.387854 2.319626 71.958181 -4.207974 20.191755 0.744454 -1.910507 -0.935279 0.591177 15.156639 2.593259 -15.986522 -5.240891 -26.436689 7.063443 -9.064604 1.030301 3.803841 0.000000 -0.000001 0.000002 1.829788 7.370085 2.783226 -2.154981 -2.431157 8.857148 -1.902734 -4.828758 4.638194 -0.000001 -0.000001 -0.000001 -1.990384 -5.671554 7.956907 0.260086 -5.064399 21.312214 -0.648777 -1.106048 6.033961 0.000000 0.000001 -0.000004 -4.667940 -13.478674 5.183497 4.021584 -4.044819 27.610611 2.098260 -3.140527 9.944468 -0.000001 0.000001 0.000000 -4.022938 -18.634493 18.283385 10.709866 -2.573067 29.210769 6.409561 -3.072030 9.663930 -0.000001 0.000001 0.000002 -18.497027 -5.995313 6.651220 15.757675 -25.811975 6.805213 32.114081 0.486099 -15.907905 -34.545256 -0.716027 1.428847 -0.000000 0.000000 0.000000 -10.885407 16.761115 6.886343 16.209092 17.652989 -2.159070 20.901168 -10.880363 3.435211 -28.075701 0.105598 -0.034563 0.000000 -0.000000 -0.000000 
-21.673546 96.725136 1.722955 -0.869846 19.951756 -3.001021 5.700107 0.331788 -3.903138 -3.456940 1.475927 2.020150 -3.381921 1.367492 1.927197 7.166986 -5.196279 3.943151 1.164965 -10.322978 -0.843722 -0.000000 0.000001 -0.000000 3.903390 -6.584489 1.532384 10.269310 9.752337 -76.445895 -2.492921 -16.469275 1.393419 -3.243077 1.466523 7.386186 9.690192 -4.468093 15.734381 -3.173031 22.698097 -5.984270 -6.610338 0.485983 -2.583027 -0.000001 -0.000001 0.000000 -2.726605 18.427866 -13.149443 8.428326 2.579348 -26.667990 5.090465 2.538024 -9.903642 -0.000001 0.000001 -0.000000 -3.416533 16.311909 -2.533130 2.995245 3.445192 -24.858115 1.672557 2.519348 -10.988402 -0.000003 0.000001 0.000003 -1.918455 4.424516 -4.986902 -0.023968 4.062314 -19.340481 -0.527294 0.884461 -7.134725 -0.000000 0.000001 0.000004 1.098555 -7.132367 -0.668473 -1.779010 1.895387 -12.359734 -1.612476 3.832394 -8.628861 -0.000003 0.000003 0.000002 1.560725 5.958814 3.510606 -1.457760 2.473709 71.671525 -4.352317 21.125642 1.045392 -1.954231 -0.400114 0.959199 15.170868 2.484098 -16.012470 -5.178541 -26.531580 7.065966 -9.014974 0.931969 3.778088 0.000001 -0.000001 0.000002 1.819442 7.145929 2.895334 -2.155876 -2.431245 9.053164 -1.902816 -4.829395 4.834209 0.000001 -0.000003 0.000003 -1.989845 -5.671648 8.069881 0.260637 -5.065104 21.425137 -0.648730 -1.106662 6.146890 0.000001 0.000001 -0.000001 -4.667327 -13.409677 5.296366 4.021273 -4.045155 27.723550 2.098544 -3.141720 10.057468 0.000001 -0.000001 -0.000003 -4.059608 -18.482026 18.383724 10.710856 -2.574531 29.323956 6.410694 -3.072001 9.776924 -0.000000 0.000000 0.000004 -19.321878 -4.809441 7.931286 16.688199 -23.612307 5.122865 32.653253 0.230687 -14.484722 -35.155554 -0.735945 1.286918 -0.000000 -0.000000 0.000000 -10.119595 13.026774 7.429151 16.675123 17.641620 -2.380429 20.514688 -9.551582 2.028280 -28.004259 0.090711 -0.001950 0.000000 -0.000000 0.000000 
-22.247522 96.421669 1.779380 -1.035381 21.557619 -3.395081 5.472713 0.431798 -3.725186 -3.309702 1.478326 2.177606 -3.241604 1.400557 2.083691 7.377333 -6.131745 4.078038 1.052797 -10.964439 -0.598773 0.000000 -0.000001 0.000000 3.903889 -6.494415 1.559140 10.695709 9.711899 -77.302572 -2.108235 -16.243450 1.600272 -3.217233 1.671931 6.930734 9.550219 -4.301880 16.071246 -3.085781 22.840916 -5.980360 -6.538482 0.633309 -2.546059 0.000005 0.000001 0.000000 -2.762410 18.212307 -13.305692 8.428272 2.580243 -26.836262 5.091232 2.538934 -10.071894 0.000000 0.000001 -0.000004 -3.414008 16.100974 -2.701349 2.994575 3.445264 -25.026250 1.673162 2.519377 -11.156593 0.000002 0.000002 0.000003 -1.917956 4.424705 -5.155132 -0.023794 4.063565 -19.508670 -0.527557 0.885289 -7.302849 0.000001 0.000003 0.000002 1.080041 -6.832103 -0.837247 -1.779419 1.895630 -12.527895 -1.612639 3.833553 -8.796998 -0.000001 0.000004 0.000004 1.494330 5.862461 3.275926 -1.383313 2.529446 71.901866 -4.850686 21.547640 1.309282 -1.995528 0.162916 1.289144 15.187262 2.357277 -16.042499 -5.106004 -26.641817 7.069044 -8.957394 0.817669 3.748196 0.000002 -0.000001 0.000002 1.808477 6.885443 3.025542 -2.156858 -2.431412 9.280978 -1.902749 -4.829239 5.062059 -0.000002 -0.000001 -0.000001 -1.989330 -5.671897 8.201204 0.261223 -5.065311 21.556448 -0.648647 -1.106570 6.278112 0.000001 -0.000001 -0.000004 -4.667003 -13.329480 5.427606 4.021270 -4.045697 27.854797 2.098859 -3.142400 10.188706 0.000000 -0.000000 -0.000005 -4.102934 -18.305061 18.500295 10.711378 -2.576266 29.455515 6.411990 -3.072036 9.908174 0.000001 0.000002 0.000004 -20.458804 -4.248797 9.523188 17.836631 -19.945744 3.534517 32.677162 -0.642381 -12.957175 -35.424916 -0.691086 1.142899 0.000000 0.000001 0.000000 -9.821490 10.300157 7.956944 17.237675 16.811047 -2.223127 19.846684 -8.582785 0.517315 -28.027995 -0.026907 0.225045 0.000000 -0.000000 0.000000 
-22.771946 96.138550 1.815358 -1.143448 23.172716 -3.638341 5.298693 0.532740 -3.630973 -3.176790 1.481715 2.335036 -3.114135 1.403479 2.243066 7.348830 -7.093289 3.938656 1.085179 -11.702143 -0.317736 -0.000001 0.000000 -0.000000 3.859542 -6.182035 1.256093 10.904038 9.369916 -77.814405 -1.888498 -16.354939 1.557564 -3.194404 2.247761 6.594257 9.396753 -4.120706 16.442367 -2.989902 22.997768 -5.976343 -6.459804 0.795200 -2.505658 0.000001 -0.000002 -0.000003 -2.803160 17.975871 -13.477044 8.428295 2.580268 -27.021005 5.091144 2.538938 -10.256560 -0.000003 0.000001 0.000001 -3.411371 15.869367 -2.886106 2.994354 3.445371 -25.210881 1.673785 2.519545 -11.341299 -0.000003 0.000002 0.000003 -1.917390 4.424898 -5.339839 -0.023748 4.064842 -19.693355 -0.527736 0.885308 -7.487563 0.000001 0.000001 0.000001 1.061750 -6.502349 -1.022437 -1.779840 1.896020 -12.712539 -1.612733 3.834730 -8.981656 -0.000006 0.000001 0.000001 1.433605 5.772861 2.956712 -1.097701 2.712608 72.173728 -5.713198 21.886827 1.716892 -2.017793 0.482706 1.153486 15.205750 2.214096 -16.076416 -5.024077 -26.766210 7.072709 -8.891469 0.689265 3.714118 -0.000000 -0.000001 0.000001 1.797584 6.591527 3.172371 -2.157954 -2.431441 9.538010 -1.902710 -4.829189 5.319184 0.000001 0.000000 0.000001 -1.988746 -5.672295 8.349337 0.261501 -5.064928 21.704536 -0.648605 -1.106600 6.426204 0.000005 0.000001 -0.000001 -4.667854 -13.239020 5.575291 4.021207 -4.045869 28.002937 2.099148 -3.142332 10.336804 -0.000001 -0.000002 -0.000003 -4.152712 -18.105612 18.631764 10.711273 -2.577783 29.603905 6.411917 -3.072118 10.056281 -0.000000 -0.000004 0.000005 -21.583738 -3.546920 10.151365 19.130795 -17.927107 2.797958 33.012306 -0.717729 -11.961324 -35.964617 -0.641215 0.924304 0.000000 -0.000001 -0.000000 -9.621781 8.282488 7.999446 17.671668 14.998317 -1.886523 19.242757 -6.772865 -0.717096 -28.077024 -0.048575 0.283353 -0.000000 -0.000001 -0.000000 
-23.289116 95.959709 1.843508 -1.379778 24.806236 -3.746244 5.272480 0.628157 -3.425278 -3.099959 1.517004 2.408127 -3.044951 1.447886 2.317859 7.292304 -8.072059 3.856741 1.156330 -12.446435 -0.011188 0.000001 0.000002 -0.000000 3.846908 -5.946598 1.066030 10.906972 8.914961 -78.308153 -1.935760 -16.386638 1.480483 -3.163019 2.100903 6.288229 9.232576 -3.928193 16.841389 -2.887055 23.165838 -5.972353 -6.375637 0.968753 -2.462691 -0.000002 -0.000000 0.000001 -2.848447 17.722855 -13.660406 8.428358 2.580351 -27.218859 5.091183 2.539059 -10.454470 -0.000001 0.000001 -0.000000 -3.408802 15.621283 -3.084046 2.994642 3.445369 -25.408835 1.674480 2.519579 -11.539215 -0.000001 0.000001 0.000005 -1.916797 4.424938 -5.537782 -0.023637 4.065495 -19.891237 -0.527934 0.885390 -7.685423 -0.000001 -0.000000 0.000004 1.044519 -6.148972 -1.220625 -1.780267 1.896264 -12.910441 -1.612718 3.834956 -9.179572 -0.000000 -0.000000 -0.000001 1.313529 5.800864 3.116080 -0.747036 2.613495 72.166467 -5.164416 22.059404 1.545252 -2.068065 0.531091 1.926696 15.226023 2.056034 -16.113774 -4.933473 -26.903577 7.076943 -8.818806 0.547434 3.676693 -0.000001 -0.000001 0.000002 1.787282 6.267009 3.334337 -2.159114 -2.431531 9.821833 -1.902707 -4.829279 5.603033 -0.000005 -0.000001 -0.000001 -1.988140 -5.672325 8.512900 0.261986 -5.064588 21.868095 -0.648547 -1.106752 6.589688 0.000000 0.000002 -0.000004 -4.668988 -13.139173 5.738345 4.021117 -4.046059 28.166481 2.099512 -3.142392 10.500358 0.000000 -0.000002 -0.000003 -4.208796 -17.885709 18.776822 10.711241 -2.578860 29.767597 6.411902 -3.072344 10.219836 -0.000000 0.000002 -0.000001 -22.357612 -2.423562 10.540212 20.188716 -16.211835 2.465808 32.989551 -0.882883 -10.944934 -36.075280 -0.601794 0.829819 0.000000 0.000000 0.000000 -9.174315 6.870807 8.120070 17.808528 14.279294 -1.473061 18.990718 -6.463170 -1.123120 -28.159388 0.076900 0.062068 -0.000000 -0.000002 -0.000000 
